# xmcd CD database file
#
# Track frame offsets:
#	150
#	23503
#	45307
#	64566
#	83722
#	104365
#	125980
#	152938
#	172975
#	192707
#	228255
#
# Disc length: 3529 seconds
#
# Revision: 0
# Processed by: cddbd v1.5.1PL0 Copyright (c) Steve Scherf et al.
# Submitted via: CDex 1.51
#
DISCID=880dc70b
DTITLE=チェン・ミン - Moon -月亮心-
DYEAR=2004
DGENRE=New Age
TTITLE0=feel the moon
TTITLE1=夕日
TTITLE2=PHONIX 〜ベートーベン「悲愴」より〜(MOON Ver.)
TTITLE3=万華鏡
TTITLE4=恋雲
TTITLE5=紅楼夢
TTITLE6=ラストエンペラー
TTITLE7=アメイジング・グレイス
TTITLE8=昴
TTITLE9=彩雲
TTITLE10=CD EXTRA
EXTD=YEAR: 2004.05.26
EXTT0=
EXTT1=
EXTT2=
EXTT3=
EXTT4=
EXTT5=
EXTT6=
EXTT7=
EXTT8=
EXTT9=
EXTT10=
PLAYORDER=
